<svg width="36" height="36" viewBox="0 0 36 36" fill="none" xmlns="http://www.w3.org/2000/svg">
<path fill-rule="evenodd" clip-rule="evenodd" d="M26.7903 23.1689C28.2651 21.9162 29.4634 20.5927 30.2822 19.5986C30.8644 18.8917 31.1555 18.5382 31.1555 18C31.1555 17.4618 30.8644 17.1083 30.2822 16.4014C28.1521 13.8152 23.4537 9 18.0001 9C16.4635 9 14.9869 9.38228 13.6107 9.98927L17.1935 13.5721C17.4552 13.5247 17.7248 13.5 18.0001 13.5C20.4854 13.5 22.5001 15.5147 22.5001 18C22.5001 18.2753 22.4754 18.5449 22.428 18.8066L26.7903 23.1689ZM24.3468 24.968L20.8563 21.4775C20.0794 22.1164 19.0846 22.5 18.0001 22.5C15.5149 22.5 13.5001 20.4853 13.5001 18C13.5001 16.9156 13.8837 15.9208 14.5226 15.1438L10.9041 11.5253C8.64639 13.089 6.83145 15.0497 5.71809 16.4014C5.13585 17.1083 4.84473 17.4618 4.84473 18C4.84473 18.5382 5.13585 18.8917 5.71809 19.5986C7.84823 22.1848 12.5465 27 18.0001 27C20.2943 27 22.4549 26.1479 24.3468 24.968Z" fill="#909090"/>
<path d="M7.5 3L31.5 27" stroke="#909090" stroke-width="2"/>
</svg>
