<svg width="1445" height="91" viewBox="0 0 1445 91" fill="none" xmlns="http://www.w3.org/2000/svg">
<path d="M90.56 91H0.320001V0.887993H17.472V77.688H90.56V91ZM225.965 91H206.765L160.301 18.424L113.069 91H94.125L154.029 0.887993H166.445L225.965 91ZM221.214 26.872H214.43V0.887993H231.966V8.56799L221.214 26.872ZM316.991 91H277.183C255.807 91 245.055 84.472 245.055 71.544V20.344C245.055 7.41599 255.807 0.887993 277.183 0.887993H347.711V14.2H277.183C267.071 14.2 262.079 16.248 262.079 20.344V71.544C262.079 75.64 267.071 77.688 277.183 77.688H316.991C327.103 77.688 332.095 75.768 332.095 71.8V41.848H349.119V71.8C349.119 84.6 338.367 91 316.991 91ZM457.492 91H364.82V0.887993H457.492V14.2H381.844V36.728H453.652V50.04H381.844V77.688H457.492V91ZM591.241 91H582.921L486.793 20.856V91H471.945V0.887993H486.665L576.393 67.832V0.887993H591.241V91ZM756.428 91H699.724C677.452 91 671.18 81.784 671.18 71.544V56.824C671.18 48.12 676.172 43.896 682.956 42.104C676.556 40.824 672.332 34.936 672.332 27.128V20.344C672.332 8.312 680.012 0.887993 699.98 0.887993H740.812V14.2H699.98C692.044 14.2 689.356 16.248 689.356 21.24V29.048C689.356 34.04 692.044 36.088 699.98 36.088H767.436V49.4H756.428V91ZM739.404 77.688V49.4H699.724C692.94 49.4 688.204 51.448 688.204 57.08V68.344C688.204 75.64 692.94 77.688 699.724 77.688H739.404ZM915.295 91H841.695V0.887993H915.039C935.007 0.887993 942.687 8.312 942.687 20.344V28.664C942.687 36.472 938.463 42.36 932.063 43.64C938.847 45.432 943.839 49.656 943.839 58.36V71.544C943.839 81.784 937.567 91 915.295 91ZM926.815 68.344V58.616C926.815 52.984 922.079 50.936 915.295 50.936H858.719V77.688H915.295C922.079 77.688 926.815 75.64 926.815 68.344ZM925.663 30.584V21.24C925.663 16.248 922.975 14.2 915.039 14.2H858.719V37.624H915.039C922.975 37.624 925.663 35.576 925.663 30.584ZM1047.24 91H987.724C967.244 91 959.436 82.168 959.436 69.24V0.887993H976.46V69.368C976.46 74.744 980.044 77.688 987.724 77.688H1043.66C1051.34 77.688 1054.92 74.744 1054.92 69.368V0.887993H1071.95V69.24C1071.95 82.168 1067.72 91 1047.24 91ZM1207.34 91H1188.14L1141.68 18.424L1094.44 91H1075.5L1135.4 0.887993H1147.82L1207.34 91ZM1334.99 91H1326.67L1230.54 20.856V91H1215.7V0.887993H1230.42L1320.14 67.832V0.887993H1334.99V91ZM1444.24 91H1351.57V0.887993H1444.24V14.2H1368.59V36.728H1440.4V50.04H1368.59V77.688H1444.24V91Z" fill="black"/>
</svg>
