<svg width="329" height="192" viewBox="0 0 329 192" fill="none" xmlns="http://www.w3.org/2000/svg">
<mask id="path-1-inside-1_55_8332" fill="white">
<path fill-rule="evenodd" clip-rule="evenodd" d="M164.5 163.259C147.081 180.997 122.825 192 96 192C42.9807 192 0 149.019 0 96C0 42.9807 42.9807 0 96 0C122.825 0 147.081 11.0026 164.5 28.7411C181.919 11.0026 206.175 0 233 0C286.019 0 329 42.9807 329 96C329 149.019 286.019 192 233 192C206.175 192 181.919 180.997 164.5 163.259Z"/>
</mask>
<path fill-rule="evenodd" clip-rule="evenodd" d="M164.5 163.259C147.081 180.997 122.825 192 96 192C42.9807 192 0 149.019 0 96C0 42.9807 42.9807 0 96 0C122.825 0 147.081 11.0026 164.5 28.7411C181.919 11.0026 206.175 0 233 0C286.019 0 329 42.9807 329 96C329 149.019 286.019 192 233 192C206.175 192 181.919 180.997 164.5 163.259Z" fill="white"/>
<path d="M164.5 163.259L167.354 160.456L164.5 157.55L161.646 160.456L164.5 163.259ZM164.5 28.7411L161.646 31.5438L164.5 34.4501L167.354 31.5438L164.5 28.7411ZM161.646 160.456C144.948 177.46 121.708 188 96 188V196C123.942 196 149.214 184.534 167.354 166.061L161.646 160.456ZM96 188C45.1898 188 4 146.81 4 96H-4C-4 151.228 40.7715 196 96 196V188ZM4 96C4 45.1898 45.1898 4 96 4V-4C40.7715 -4 -4 40.7715 -4 96H4ZM96 4C121.708 4 144.948 14.5396 161.646 31.5438L167.354 25.9385C149.214 7.46557 123.942 -4 96 -4V4ZM167.354 31.5438C184.052 14.5396 207.292 4 233 4V-4C205.058 -4 179.786 7.46557 161.646 25.9385L167.354 31.5438ZM233 4C283.81 4 325 45.1898 325 96H333C333 40.7715 288.228 -4 233 -4V4ZM325 96C325 146.81 283.81 188 233 188V196C288.228 196 333 151.228 333 96H325ZM233 188C207.292 188 184.052 177.46 167.354 160.456L161.646 166.061C179.786 184.534 205.058 196 233 196V188Z" fill="black" mask="url(#path-1-inside-1_55_8332)"/>
</svg>
